<svg xmlns="http://www.w3.org/2000/svg" width="100" height="100" stroke-width="4">
  <style>
    path {
      fill: none;
      stroke: #14191e;
    }
    @media (prefers-color-scheme: dark) {
      path {
        stroke: #f2f2f2;
      }
    }
  </style>
  <path d="M 02 10 C 25 10, 25 46, 50 46 C 75 46, 75 10, 98 10" />
  <path d="M 02 30 C 25 30, 25 48, 50 48 C 75 48, 75 30, 98 30" />
  <path d="M 02 50 L 98 50" />
  <path d="M 02 70 C 25 70, 25 52, 50 52 C 75 52, 75 70, 98 70" />
  <path d="M 02 90 C 25 90, 25 54, 50 54 C 75 54, 75 90, 98 90" />
</svg>
